<svg xmlns="http://www.w3.org/2000/svg" viewBox="0 0 800 50" role="img" aria-label="Technology stack: Python, TypeScript, SQL, PostgreSQL, Snowflake, Kafka, PyTorch, TensorFlow, LangChain, Next.js, React, FastAPI, AWS, Docker, Kubernetes, GitHub Actions, Vercel">
  <title>Tech Stack Marquee</title>
  <defs>
    <style>
      :root {
        --bg: #1C1A17;
        --fg: #F0EBE1;
        --fg-muted: #8C8479;
      }

      .ticker-bg {
        fill: var(--bg);
      }

      .tech-text {
        fill: var(--fg);
        font-family: 'SF Mono', 'Fira Code', 'Consolas', monospace;
        font-size: 14px;
      }

      .separator {
        fill: var(--fg-muted);
        font-family: 'SF Mono', 'Fira Code', 'Consolas', monospace;
        font-size: 14px;
      }

      /* Marquee animation - infinite horizontal scroll */
      .marquee-group {
        animation: scroll 39s linear infinite;
      }

      @keyframes scroll {
        from { transform: translateX(0); }
        to { transform: translateX(-1568px); }
      }

      /* Reduced motion - stop animation */
      @media (prefers-reduced-motion: reduce) {
        .marquee-group {
          animation: none;
        }
      }
    </style>
  </defs>

  <!-- Background -->
  <rect class="ticker-bg" x="0" y="0" width="800" height="50"/>

  <!-- Marquee Container with clip path -->
  <clipPath id="ticker-clip">
    <rect x="0" y="0" width="800" height="50"/>
  </clipPath>

  <g clip-path="url(#ticker-clip)">
    <g class="marquee-group">
      <!-- First copy of items -->
      <text class="tech-text" x="0" y="32">Python</text>
      <text class="separator" x="64" y="32">&#xB7;</text>
      <text class="tech-text" x="79" y="32">TypeScript</text>
      <text class="separator" x="179" y="32">&#xB7;</text>
      <text class="tech-text" x="194" y="32">SQL</text>
      <text class="separator" x="231" y="32">&#xB7;</text>
      <text class="tech-text" x="246" y="32">PostgreSQL</text>
      <text class="separator" x="346" y="32">&#xB7;</text>
      <text class="tech-text" x="361" y="32">Snowflake</text>
      <text class="separator" x="452" y="32">&#xB7;</text>
      <text class="tech-text" x="467" y="32">Kafka</text>
      <text class="separator" x="522" y="32">&#xB7;</text>
      <text class="tech-text" x="537" y="32">PyTorch</text>
      <text class="separator" x="610" y="32">&#xB7;</text>
      <text class="tech-text" x="625" y="32">TensorFlow</text>
      <text class="separator" x="725" y="32">&#xB7;</text>
      <text class="tech-text" x="740" y="32">LangChain</text>
      <text class="separator" x="831" y="32">&#xB7;</text>
      <text class="tech-text" x="846" y="32">Next.js</text>
      <text class="separator" x="919" y="32">&#xB7;</text>
      <text class="tech-text" x="934" y="32">React</text>
      <text class="separator" x="989" y="32">&#xB7;</text>
      <text class="tech-text" x="1004" y="32">FastAPI</text>
      <text class="separator" x="1077" y="32">&#xB7;</text>
      <text class="tech-text" x="1092" y="32">AWS</text>
      <text class="separator" x="1129" y="32">&#xB7;</text>
      <text class="tech-text" x="1144" y="32">Docker</text>
      <text class="separator" x="1208" y="32">&#xB7;</text>
      <text class="tech-text" x="1223" y="32">Kubernetes</text>
      <text class="separator" x="1323" y="32">&#xB7;</text>
      <text class="tech-text" x="1338" y="32">GitHub Actions</text>
      <text class="separator" x="1474" y="32">&#xB7;</text>
      <text class="tech-text" x="1489" y="32">Vercel</text>
      <text class="separator" x="1553" y="32">&#xB7;</text>

      <!-- Second copy for seamless loop -->
      <text class="tech-text" x="1568" y="32">Python</text>
      <text class="separator" x="1632" y="32">&#xB7;</text>
      <text class="tech-text" x="1647" y="32">TypeScript</text>
      <text class="separator" x="1747" y="32">&#xB7;</text>
      <text class="tech-text" x="1762" y="32">SQL</text>
      <text class="separator" x="1799" y="32">&#xB7;</text>
      <text class="tech-text" x="1814" y="32">PostgreSQL</text>
      <text class="separator" x="1914" y="32">&#xB7;</text>
      <text class="tech-text" x="1929" y="32">Snowflake</text>
      <text class="separator" x="2020" y="32">&#xB7;</text>
      <text class="tech-text" x="2035" y="32">Kafka</text>
      <text class="separator" x="2090" y="32">&#xB7;</text>
      <text class="tech-text" x="2105" y="32">PyTorch</text>
      <text class="separator" x="2178" y="32">&#xB7;</text>
      <text class="tech-text" x="2193" y="32">TensorFlow</text>
      <text class="separator" x="2293" y="32">&#xB7;</text>
      <text class="tech-text" x="2308" y="32">LangChain</text>
      <text class="separator" x="2399" y="32">&#xB7;</text>
      <text class="tech-text" x="2414" y="32">Next.js</text>
      <text class="separator" x="2487" y="32">&#xB7;</text>
      <text class="tech-text" x="2502" y="32">React</text>
      <text class="separator" x="2557" y="32">&#xB7;</text>
      <text class="tech-text" x="2572" y="32">FastAPI</text>
      <text class="separator" x="2645" y="32">&#xB7;</text>
      <text class="tech-text" x="2660" y="32">AWS</text>
      <text class="separator" x="2697" y="32">&#xB7;</text>
      <text class="tech-text" x="2712" y="32">Docker</text>
      <text class="separator" x="2776" y="32">&#xB7;</text>
      <text class="tech-text" x="2791" y="32">Kubernetes</text>
      <text class="separator" x="2891" y="32">&#xB7;</text>
      <text class="tech-text" x="2906" y="32">GitHub Actions</text>
      <text class="separator" x="3042" y="32">&#xB7;</text>
      <text class="tech-text" x="3057" y="32">Vercel</text>
      <text class="separator" x="3121" y="32">&#xB7;</text>
    </g>
  </g>
</svg>