<svg xmlns="http://www.w3.org/2000/svg" viewBox="0 0 1500 280"><rect x="0" y="0" width="1500" height="280" fill="#0A0E1A"/><g transform="translate(30,42) scale(0.8333)"><path fill="#9EFF5A" d="M2 9.5a5.5 5.5 0 0 1 9.591-3.676.56.56 0 0 0 .818 0A5.49 5.49 0 0 1 22 9.5c0 2.29-1.5 4-3 5.5l-5.492 5.313a2 2 0 0 1-3 .019L5 15c-1.5-1.5-3-3.2-3-5.5" /></g><g transform="translate(58,58)" fill="#9EFF5A"><path d="M3.0693359375 0.0H5.455078125L6.8017578125 -5.208984375C7.0 -5.9814453125 7.123046875 -6.794921875 7.2529296875 -7.642578125C7.396484375 -6.767578125 7.533203125 -5.9404296875 7.7177734375 -5.208984375L9.0712890625 0.0H11.4501953125L14.19140625 -10.185546875H11.908203125L10.7255859375 -5.1748046875C10.5205078125 -4.2451171875 10.3427734375 -3.1513671875 10.1787109375 -2.1123046875C9.994140625 -3.1513671875 9.8095703125 -4.2451171875 9.583984375 -5.1748046875L8.3466796875 -10.185546875H6.1796875L4.935546875 -5.1748046875C4.703125 -4.23828125 4.525390625 -3.130859375 4.3408203125 -2.0849609375C4.1767578125 -3.130859375 3.9990234375 -4.23828125 3.7939453125 -5.1748046875L2.611328125 -10.185546875H0.3349609375ZM15.44921875 0.0H17.5341796875V-4.3408203125H21.970703125V0.0H24.0625V-10.185546875H21.970703125V-6.0703125H17.5341796875V-10.185546875H15.44921875ZM25.3203125 0.0H27.6240234375L28.3828125 -2.365234375H31.9990234375L32.78515625 0.0H35.1025390625L31.5341796875 -10.185546875H28.7998046875ZM28.90234375 -3.9990234375 29.1962890625 -4.9150390625C29.50390625 -5.9404296875 29.8046875 -7.150390625 30.146484375 -8.5517578125C30.501953125 -7.1640625 30.8232421875 -5.9609375 31.1513671875 -4.9150390625L31.458984375 -3.9990234375ZM35.9501953125 -8.4560546875H39.0673828125V0.0H41.1591796875V-8.4560546875H44.26953125V-10.185546875H35.9501953125ZM51.10546875 -10.185546875H49.0205078125V0.0H51.10546875ZM56.2666015625 0.0H63.095703125V-1.7294921875H58.3515625V-4.29296875H62.7265625V-5.9951171875H58.3515625V-8.4560546875H63.08203125V-10.185546875H56.2666015625ZM64.7705078125 0.0H66.9033203125V-4.6826171875C66.9033203125 -5.2841796875 66.841796875 -6.3779296875 66.7666015625 -7.6083984375C67.3955078125 -6.3369140625 67.771484375 -5.591796875 68.3388671875 -4.67578125L71.2646484375 0.0H73.595703125V-10.185546875H71.462890625V-5.2978515625C71.462890625 -4.6279296875 71.517578125 -3.5341796875 71.5927734375 -2.5361328125C71.1484375 -3.595703125 70.7177734375 -4.3681640625 70.314453125 -5.03125L67.0947265625 -10.185546875H64.7705078125ZM78.39453125 0.13671875C80.4931640625 0.13671875 81.7783203125 -1.01171875 81.7783203125 -3.0693359375V-10.185546875H79.7138671875V-3.03515625C79.7138671875 -2.05078125 79.2080078125 -1.544921875 78.39453125 -1.544921875C77.5810546875 -1.544921875 77.068359375 -2.05078125 77.068359375 -3.0283203125V-3.6572265625H74.9833984375V-3.0625C74.9833984375 -1.01171875 76.275390625 0.13671875 78.39453125 0.13671875ZM88.0947265625 0.13671875C90.794921875 0.13671875 92.845703125 -1.7705078125 92.845703125 -5.0859375C92.845703125 -8.4150390625 90.794921875 -10.322265625 88.0947265625 -10.322265625C85.39453125 -10.322265625 83.34375 -8.4150390625 83.34375 -5.0859375C83.34375 -1.77734375 85.39453125 0.13671875 88.0947265625 0.13671875ZM88.0947265625 -1.7158203125C86.515625 -1.7158203125 85.462890625 -2.9052734375 85.462890625 -5.0859375C85.462890625 -7.2734375 86.515625 -8.4697265625 88.0947265625 -8.4697265625C89.673828125 -8.4697265625 90.7265625 -7.2802734375 90.7265625 -5.0859375C90.7265625 -2.9052734375 89.673828125 -1.7158203125 88.0947265625 -1.7158203125ZM97.5966796875 0.0H99.6748046875V-3.828125L103.38671875 -10.185546875H100.953125L99.28515625 -7.013671875C99.0458984375 -6.5556640625 98.84765625 -6.1318359375 98.6494140625 -5.591796875C98.4443359375 -6.125 98.24609375 -6.548828125 97.986328125 -7.013671875L96.263671875 -10.185546875H93.8232421875L97.5966796875 -3.828125Z"/></g><g transform="translate(30,100) scale(1.0000)"><path fill="#9EFF5A" d="M21 8a2 2 0 0 0-1-1.73l-7-4a2 2 0 0 0-2 0l-7 4A2 2 0 0 0 3 8v8a2 2 0 0 0 1 1.73l7 4a2 2 0 0 0 2 0l7-4A2 2 0 0 0 21 16Z" />
  <path fill="#9EFF5A" d="m3.3 7 8.7 5 8.7-5" />
  <path fill="#9EFF5A" d="M12 22V12" /></g><g transform="translate(66,118)" fill="#9EFF5A"><path d="M1.1865234375 0.0H6.71484375C9.66796875 0.0 11.21484375 -1.5380859375 11.21484375 -3.6123046875C11.21484375 -5.5546875 9.826171875 -6.71484375 8.349609375 -6.78515625V-6.9169921875C9.6943359375 -7.2158203125 10.705078125 -8.173828125 10.705078125 -9.7294921875C10.705078125 -11.689453125 9.2548828125 -13.095703125 6.380859375 -13.095703125H1.1865234375ZM3.8671875 -2.2060546875V-5.7568359375H6.2578125C7.6025390625 -5.7568359375 8.455078125 -4.9658203125 8.455078125 -3.8671875C8.455078125 -2.8740234375 7.7607421875 -2.2060546875 6.1875 -2.2060546875ZM3.8671875 -7.59375V-10.9072265625H6.0380859375C7.294921875 -10.9072265625 7.9892578125 -10.2568359375 7.9892578125 -9.298828125C7.9892578125 -8.244140625 7.13671875 -7.59375 5.9853515625 -7.59375ZM16.41796875 0.123046875C17.912109375 0.123046875 18.9140625 -0.650390625 19.4677734375 -2.0390625L19.5029296875 0.0H21.9990234375V-9.826171875H19.353515625V-4.1396484375C19.353515625 -2.8388671875 18.5625 -2.0830078125 17.4462890625 -2.0830078125C16.3388671875 -2.0830078125 15.6708984375 -2.8125 15.6708984375 -4.0341796875V-9.826171875H13.0341796875V-3.5771484375C13.0341796875 -1.2744140625 14.37890625 0.123046875 16.41796875 0.123046875ZM24.240234375 0.0H26.876953125V-9.826171875H24.240234375ZM25.55859375 -11.109375C26.349609375 -11.109375 27.0087890625 -11.70703125 27.0087890625 -12.462890625C27.0087890625 -13.2099609375 26.349609375 -13.81640625 25.55859375 -13.81640625C24.7587890625 -13.81640625 24.1083984375 -13.2099609375 24.1083984375 -12.462890625C24.1083984375 -11.70703125 24.7587890625 -11.109375 25.55859375 -11.109375ZM31.7548828125 -13.095703125H29.1181640625V0.0H31.7548828125ZM37.5908203125 0.1669921875C39.1904296875 0.1669921875 40.0078125 -0.7822265625 40.3681640625 -1.5732421875H40.5V0.0H43.0927734375V-13.095703125H40.4560546875V-8.173828125H40.3681640625C40.0166015625 -8.9560546875 39.2431640625 -9.94921875 37.5732421875 -9.94921875C35.3935546875 -9.94921875 33.5830078125 -8.2529296875 33.5830078125 -4.8955078125C33.5830078125 -1.6259765625 35.3232421875 0.1669921875 37.5908203125 0.1669921875ZM38.3994140625 -1.951171875C37.0283203125 -1.951171875 36.2900390625 -3.1728515625 36.2900390625 -4.904296875C36.2900390625 -6.626953125 37.0107421875 -7.83984375 38.3994140625 -7.83984375C39.7529296875 -7.83984375 40.5087890625 -6.6884765625 40.5087890625 -4.904296875C40.5087890625 -3.12890625 39.744140625 -1.951171875 38.3994140625 -1.951171875ZM45.3427734375 0.0H47.9794921875V-9.826171875H45.3427734375ZM46.6611328125 -11.109375C47.4521484375 -11.109375 48.111328125 -11.70703125 48.111328125 -12.462890625C48.111328125 -13.2099609375 47.4521484375 -13.81640625 46.6611328125 -13.81640625C45.861328125 -13.81640625 45.2109375 -13.2099609375 45.2109375 -12.462890625C45.2109375 -11.70703125 45.861328125 -11.109375 46.6611328125 -11.109375ZM52.857421875 -5.6865234375C52.857421875 -6.9873046875 53.6396484375 -7.7431640625 54.7646484375 -7.7431640625C55.8720703125 -7.7431640625 56.5400390625 -7.013671875 56.5400390625 -5.7919921875V0.0H59.1767578125V-6.2490234375C59.1767578125 -8.5517578125 57.8408203125 -9.94921875 55.8017578125 -9.94921875C54.2900390625 -9.94921875 53.296875 -9.1669921875 52.7431640625 -7.7958984375L52.7080078125 -9.826171875H50.220703125V0.0H52.857421875ZM65.794921875 3.884765625C68.5634765625 3.884765625 70.5498046875 2.583984375 70.5498046875 -0.0791015625V-9.826171875H67.95703125V-8.173828125H67.8427734375C67.482421875 -8.9560546875 66.673828125 -9.94921875 65.021484375 -9.94921875C62.841796875 -9.94921875 61.013671875 -8.2529296875 61.013671875 -4.9306640625C61.013671875 -1.6787109375 62.7978515625 -0.140625 65.0126953125 -0.140625C66.603515625 -0.140625 67.376953125 -0.94921875 67.7373046875 -1.740234375H67.939453125V0.0703125C67.939453125 1.3623046875 67.1220703125 1.96875 65.77734375 1.96875C64.494140625 1.96875 63.8876953125 1.3974609375 63.6416015625 0.84375L61.3740234375 1.4765625C61.8046875 2.8828125 63.333984375 3.884765625 65.794921875 3.884765625ZM65.8388671875 -2.14453125C64.4677734375 -2.14453125 63.720703125 -3.234375 63.720703125 -4.9482421875C63.720703125 -6.6357421875 64.4501953125 -7.83984375 65.8388671875 -7.83984375C67.1923828125 -7.83984375 67.9482421875 -6.6884765625 67.9482421875 -4.9482421875C67.9482421875 -3.1904296875 67.18359375 -2.14453125 65.8388671875 -2.14453125Z"/></g><text x="30" y="150" font-family="monospace" font-size="12" fill="#8B92A5">I enjoy building tools and</text><text x="30" y="168" font-family="monospace" font-size="12" fill="#8B92A5">apps that solve real problems.</text><g transform="translate(390,100) scale(1.0000)"><path fill="#9EFF5A" d="M13.4 2H6a2 2 0 0 0-2 2v16a2 2 0 0 0 2 2h12a2 2 0 0 0 2-2v-7.4" />
  <path fill="#9EFF5A" d="M2 6h4" />
  <path fill="#9EFF5A" d="M2 10h4" />
  <path fill="#9EFF5A" d="M2 14h4" />
  <path fill="#9EFF5A" d="M2 18h4" />
  <path fill="#9EFF5A" d="M21.378 5.626a1 1 0 1 0-3.004-3.004l-5.01 5.012a2 2 0 0 0-.506.854l-.837 2.87a.5.5 0 0 0 .62.62l2.87-.837a2 2 0 0 0 .854-.506z" /></g><g transform="translate(426,118)" fill="#9EFF5A"><path d="M3.9462890625 0.0H7.013671875L8.7451171875 -6.697265625C9.0 -7.6904296875 9.158203125 -8.736328125 9.3251953125 -9.826171875C9.509765625 -8.701171875 9.685546875 -7.6376953125 9.9228515625 -6.697265625L11.6630859375 0.0H14.7216796875L18.24609375 -13.095703125H15.310546875L13.7900390625 -6.6533203125C13.5263671875 -5.4580078125 13.2978515625 -4.0517578125 13.0869140625 -2.7158203125C12.849609375 -4.0517578125 12.6123046875 -5.4580078125 12.322265625 -6.6533203125L10.7314453125 -13.095703125H7.9453125L6.345703125 -6.6533203125C6.046875 -5.44921875 5.818359375 -4.025390625 5.5810546875 -2.6806640625C5.3701171875 -4.025390625 5.1416015625 -5.44921875 4.8779296875 -6.6533203125L3.357421875 -13.095703125H0.4306640625ZM19.8017578125 0.0H22.4384765625V-5.58984375C22.4384765625 -6.8115234375 23.326171875 -7.646484375 24.5390625 -7.646484375C24.92578125 -7.646484375 25.4443359375 -7.5849609375 25.681640625 -7.5146484375V-9.8701171875C25.4443359375 -9.9228515625 25.1015625 -9.9580078125 24.8291015625 -9.9580078125C23.7216796875 -9.9580078125 22.81640625 -9.3251953125 22.4560546875 -8.1123046875H22.3505859375V-9.826171875H19.8017578125ZM27.1318359375 0.0H29.7685546875V-9.826171875H27.1318359375ZM28.4501953125 -11.109375C29.2412109375 -11.109375 29.900390625 -11.70703125 29.900390625 -12.462890625C29.900390625 -13.2099609375 29.2412109375 -13.81640625 28.4501953125 -13.81640625C27.650390625 -13.81640625 27.0 -13.2099609375 27.0 -12.462890625C27.0 -11.70703125 27.650390625 -11.109375 28.4501953125 -11.109375ZM36.8876953125 -9.826171875H35.05078125V-12.1640625H32.4140625V-9.826171875H31.060546875V-7.8134765625H32.4140625V-2.6455078125C32.4140625 -0.84375 33.486328125 0.140625 35.455078125 0.140625C35.982421875 0.140625 36.5712890625 0.0791015625 37.16015625 -0.0966796875L36.7822265625 -2.07421875C36.5888671875 -2.021484375 36.1494140625 -1.9599609375 35.947265625 -1.9599609375C35.3056640625 -1.9599609375 35.05078125 -2.25 35.05078125 -2.8740234375V-7.8134765625H36.8876953125ZM38.6015625 0.0H41.23828125V-9.826171875H38.6015625ZM39.919921875 -11.109375C40.7109375 -11.109375 41.3701171875 -11.70703125 41.3701171875 -12.462890625C41.3701171875 -13.2099609375 40.7109375 -13.81640625 39.919921875 -13.81640625C39.1201171875 -13.81640625 38.4697265625 -13.2099609375 38.4697265625 -12.462890625C38.4697265625 -11.70703125 39.1201171875 -11.109375 39.919921875 -11.109375ZM46.1162109375 -5.6865234375C46.1162109375 -6.9873046875 46.8984375 -7.7431640625 48.0234375 -7.7431640625C49.130859375 -7.7431640625 49.798828125 -7.013671875 49.798828125 -5.7919921875V0.0H52.435546875V-6.2490234375C52.435546875 -8.5517578125 51.099609375 -9.94921875 49.060546875 -9.94921875C47.548828125 -9.94921875 46.5556640625 -9.1669921875 46.001953125 -7.7958984375L45.966796875 -9.826171875H43.4794921875V0.0H46.1162109375ZM59.0537109375 3.884765625C61.822265625 3.884765625 63.80859375 2.583984375 63.80859375 -0.0791015625V-9.826171875H61.2158203125V-8.173828125H61.1015625C60.7412109375 -8.9560546875 59.9326171875 -9.94921875 58.2802734375 -9.94921875C56.1005859375 -9.94921875 54.2724609375 -8.2529296875 54.2724609375 -4.9306640625C54.2724609375 -1.6787109375 56.056640625 -0.140625 58.271484375 -0.140625C59.8623046875 -0.140625 60.6357421875 -0.94921875 60.99609375 -1.740234375H61.1982421875V0.0703125C61.1982421875 1.3623046875 60.380859375 1.96875 59.0361328125 1.96875C57.7529296875 1.96875 57.146484375 1.3974609375 56.900390625 0.84375L54.6328125 1.4765625C55.0634765625 2.8828125 56.5927734375 3.884765625 59.0537109375 3.884765625ZM59.09765625 -2.14453125C57.7265625 -2.14453125 56.9794921875 -3.234375 56.9794921875 -4.9482421875C56.9794921875 -6.6357421875 57.708984375 -7.83984375 59.09765625 -7.83984375C60.451171875 -7.83984375 61.20703125 -6.6884765625 61.20703125 -4.9482421875C61.20703125 -3.1904296875 60.4423828125 -2.14453125 59.09765625 -2.14453125Z"/></g><text x="390" y="150" font-family="monospace" font-size="12" fill="#8B92A5">From technical docs to deep</text><text x="390" y="168" font-family="monospace" font-size="12" fill="#8B92A5">thoughts — I write to think.</text><g transform="translate(750,100) scale(1.0000)"><path fill="#9EFF5A" d="m10.065 12.493-6.18 1.318a.934.934 0 0 1-1.108-.702l-.537-2.15a1.07 1.07 0 0 1 .691-1.265l13.504-4.44" />
  <path fill="#9EFF5A" d="m13.56 11.747 4.332-.924" />
  <path fill="#9EFF5A" d="m16 21-3.105-6.21" />
  <path fill="#9EFF5A" d="M16.485 5.94a2 2 0 0 1 1.455-2.425l1.09-.272a1 1 0 0 1 1.212.727l1.515 6.06a1 1 0 0 1-.727 1.213l-1.09.272a2 2 0 0 1-2.425-1.455z" />
  <path fill="#9EFF5A" d="m6.158 8.633 1.114 4.456" />
  <path fill="#9EFF5A" d="m8 21 3.105-6.21" />
  <circle cx="12" cy="13" r="2" /></g><g transform="translate(786,118)" fill="#9EFF5A"><path d="M1.1865234375 0.0H9.966796875V-2.2236328125H3.8671875V-5.51953125H9.4921875V-7.7080078125H3.8671875V-10.8720703125H9.94921875V-13.095703125H1.1865234375ZM11.302734375 0.0H14.09765625L15.1875 -1.8544921875C15.5478515625 -2.4873046875 15.837890625 -3.1201171875 16.119140625 -3.7353515625C16.4091796875 -3.1201171875 16.716796875 -2.4873046875 17.0859375 -1.8544921875L18.17578125 0.0H21.005859375L17.8330078125 -5.009765625L20.865234375 -9.826171875H18.0703125L17.1474609375 -8.279296875C16.7783203125 -7.62890625 16.470703125 -6.9873046875 16.1806640625 -6.36328125C15.890625 -6.9873046875 15.591796875 -7.62890625 15.2314453125 -8.279296875L14.34375 -9.826171875H11.49609375L14.466796875 -5.044921875ZM22.5 3.673828125H25.13671875V-1.5732421875H25.2158203125C25.5849609375 -0.7822265625 26.3935546875 0.1669921875 28.001953125 0.1669921875C30.26953125 0.1669921875 32.0009765625 -1.6259765625 32.0009765625 -4.8955078125C32.0009765625 -8.2529296875 30.19921875 -9.94921875 28.01953125 -9.94921875C26.349609375 -9.94921875 25.576171875 -8.9560546875 25.2158203125 -8.173828125H25.0927734375V-9.826171875H22.5ZM27.193359375 -1.951171875C25.8486328125 -1.951171875 25.0751953125 -3.12890625 25.0751953125 -4.904296875C25.0751953125 -6.6884765625 25.83984375 -7.83984375 27.193359375 -7.83984375C28.5732421875 -7.83984375 29.302734375 -6.626953125 29.302734375 -4.904296875C29.302734375 -3.1728515625 28.564453125 -1.951171875 27.193359375 -1.951171875ZM36.4833984375 -13.095703125H33.8466796875V0.0H36.4833984375ZM43.119140625 0.193359375C46.072265625 0.193359375 47.9267578125 -1.845703125 47.9267578125 -4.869140625C47.9267578125 -7.91015625 46.072265625 -9.94921875 43.119140625 -9.94921875C40.1572265625 -9.94921875 38.3115234375 -7.91015625 38.3115234375 -4.869140625C38.3115234375 -1.845703125 40.1572265625 0.193359375 43.119140625 0.193359375ZM43.119140625 -1.880859375C41.712890625 -1.880859375 41.0009765625 -3.1640625 41.0009765625 -4.8779296875C41.0009765625 -6.6181640625 41.712890625 -7.875 43.119140625 -7.875C44.525390625 -7.875 45.24609375 -6.609375 45.24609375 -4.8779296875C45.24609375 -3.1640625 44.525390625 -1.880859375 43.119140625 -1.880859375ZM49.763671875 0.0H52.400390625V-5.58984375C52.400390625 -6.8115234375 53.2880859375 -7.646484375 54.5009765625 -7.646484375C54.8876953125 -7.646484375 55.40625 -7.5849609375 55.6435546875 -7.5146484375V-9.8701171875C55.40625 -9.9228515625 55.0634765625 -9.9580078125 54.791015625 -9.9580078125C53.68359375 -9.9580078125 52.7783203125 -9.3251953125 52.41796875 -8.1123046875H52.3125V-9.826171875H49.763671875ZM57.09375 0.0H59.73046875V-9.826171875H57.09375ZM58.412109375 -11.109375C59.203125 -11.109375 59.8623046875 -11.70703125 59.8623046875 -12.462890625C59.8623046875 -13.2099609375 59.203125 -13.81640625 58.412109375 -13.81640625C57.6123046875 -13.81640625 56.9619140625 -13.2099609375 56.9619140625 -12.462890625C56.9619140625 -11.70703125 57.6123046875 -11.109375 58.412109375 -11.109375ZM64.6083984375 -5.6865234375C64.6083984375 -6.9873046875 65.390625 -7.7431640625 66.515625 -7.7431640625C67.623046875 -7.7431640625 68.291015625 -7.013671875 68.291015625 -5.7919921875V0.0H70.927734375V-6.2490234375C70.927734375 -8.5517578125 69.591796875 -9.94921875 67.552734375 -9.94921875C66.041015625 -9.94921875 65.0478515625 -9.1669921875 64.494140625 -7.7958984375L64.458984375 -9.826171875H61.9716796875V0.0H64.6083984375ZM77.5458984375 3.884765625C80.314453125 3.884765625 82.30078125 2.583984375 82.30078125 -0.0791015625V-9.826171875H79.7080078125V-8.173828125H79.59375C79.2333984375 -8.9560546875 78.4248046875 -9.94921875 76.7724609375 -9.94921875C74.5927734375 -9.94921875 72.7646484375 -8.2529296875 72.7646484375 -4.9306640625C72.7646484375 -1.6787109375 74.548828125 -0.140625 76.763671875 -0.140625C78.3544921875 -0.140625 79.1279296875 -0.94921875 79.48828125 -1.740234375H79.6904296875V0.0703125C79.6904296875 1.3623046875 78.873046875 1.96875 77.5283203125 1.96875C76.2451171875 1.96875 75.638671875 1.3974609375 75.392578125 0.84375L73.125 1.4765625C73.5556640625 2.8828125 75.0849609375 3.884765625 77.5458984375 3.884765625ZM77.58984375 -2.14453125C76.21875 -2.14453125 75.4716796875 -3.234375 75.4716796875 -4.9482421875C75.4716796875 -6.6357421875 76.201171875 -7.83984375 77.58984375 -7.83984375C78.943359375 -7.83984375 79.69921875 -6.6884765625 79.69921875 -4.9482421875C79.69921875 -3.1904296875 78.9345703125 -2.14453125 77.58984375 -2.14453125Z"/></g><text x="750" y="150" font-family="monospace" font-size="12" fill="#8B92A5">Space, physics, and the unknown</text><text x="750" y="168" font-family="monospace" font-size="12" fill="#8B92A5">fascinate me endlessly.</text><g transform="translate(1110,100) scale(1.0000)"><path fill="#9EFF5A" d="M15 14c.2-1 .7-1.7 1.5-2.5 1-.9 1.5-2.2 1.5-3.5A6 6 0 0 0 6 8c0 1 .2 2.2 1.5 3.5.7.7 1.3 1.5 1.5 2.5" />
  <path fill="#9EFF5A" d="M9 18h6" />
  <path fill="#9EFF5A" d="M10 22h4" /></g><g transform="translate(1146,118)" fill="#9EFF5A"><path d="M0.6591796875 -10.8720703125H4.6669921875V0.0H7.3564453125V-10.8720703125H11.35546875V-13.095703125H0.6591796875ZM15.7763671875 -5.6865234375C15.7763671875 -6.9873046875 16.55859375 -7.7431640625 17.68359375 -7.7431640625C18.791015625 -7.7431640625 19.458984375 -7.013671875 19.458984375 -5.7919921875V0.0H22.1044921875V-6.2490234375C22.1044921875 -8.5517578125 20.759765625 -9.94921875 18.720703125 -9.94921875C17.26171875 -9.94921875 16.294921875 -9.228515625 15.7236328125 -7.9453125V-13.095703125H13.1396484375V0.0H15.7763671875ZM24.345703125 0.0H26.982421875V-9.826171875H24.345703125ZM25.6640625 -11.109375C26.455078125 -11.109375 27.1142578125 -11.70703125 27.1142578125 -12.462890625C27.1142578125 -13.2099609375 26.455078125 -13.81640625 25.6640625 -13.81640625C24.8642578125 -13.81640625 24.2138671875 -13.2099609375 24.2138671875 -12.462890625C24.2138671875 -11.70703125 24.8642578125 -11.109375 25.6640625 -11.109375ZM31.8603515625 -5.6865234375C31.8603515625 -6.9873046875 32.642578125 -7.7431640625 33.767578125 -7.7431640625C34.875 -7.7431640625 35.54296875 -7.013671875 35.54296875 -5.7919921875V0.0H38.1796875V-6.2490234375C38.1796875 -8.5517578125 36.84375 -9.94921875 34.8046875 -9.94921875C33.29296875 -9.94921875 32.2998046875 -9.1669921875 31.74609375 -7.7958984375L31.7109375 -9.826171875H29.2236328125V0.0H31.8603515625ZM40.4296875 0.0H43.06640625V-3.1552734375L43.822265625 -4.0078125L46.564453125 0.0H49.6669921875L45.80859375 -5.5634765625L49.482421875 -9.826171875H46.4326171875L43.2158203125 -6.046875H43.06640625V-13.095703125H40.4296875ZM50.87109375 0.0H53.5078125V-9.826171875H50.87109375ZM52.189453125 -11.109375C52.98046875 -11.109375 53.6396484375 -11.70703125 53.6396484375 -12.462890625C53.6396484375 -13.2099609375 52.98046875 -13.81640625 52.189453125 -13.81640625C51.3896484375 -13.81640625 50.7392578125 -13.2099609375 50.7392578125 -12.462890625C50.7392578125 -11.70703125 51.3896484375 -11.109375 52.189453125 -11.109375ZM58.3857421875 -5.6865234375C58.3857421875 -6.9873046875 59.16796875 -7.7431640625 60.29296875 -7.7431640625C61.400390625 -7.7431640625 62.068359375 -7.013671875 62.068359375 -5.7919921875V0.0H64.705078125V-6.2490234375C64.705078125 -8.5517578125 63.369140625 -9.94921875 61.330078125 -9.94921875C59.818359375 -9.94921875 58.8251953125 -9.1669921875 58.271484375 -7.7958984375L58.236328125 -9.826171875H55.7490234375V0.0H58.3857421875ZM71.3232421875 3.884765625C74.091796875 3.884765625 76.078125 2.583984375 76.078125 -0.0791015625V-9.826171875H73.4853515625V-8.173828125H73.37109375C73.0107421875 -8.9560546875 72.2021484375 -9.94921875 70.5498046875 -9.94921875C68.3701171875 -9.94921875 66.5419921875 -8.2529296875 66.5419921875 -4.9306640625C66.5419921875 -1.6787109375 68.326171875 -0.140625 70.541015625 -0.140625C72.1318359375 -0.140625 72.9052734375 -0.94921875 73.265625 -1.740234375H73.4677734375V0.0703125C73.4677734375 1.3623046875 72.650390625 1.96875 71.3056640625 1.96875C70.0224609375 1.96875 69.416015625 1.3974609375 69.169921875 0.84375L66.90234375 1.4765625C67.3330078125 2.8828125 68.8623046875 3.884765625 71.3232421875 3.884765625ZM71.3671875 -2.14453125C69.99609375 -2.14453125 69.2490234375 -3.234375 69.2490234375 -4.9482421875C69.2490234375 -6.6357421875 69.978515625 -7.83984375 71.3671875 -7.83984375C72.720703125 -7.83984375 73.4765625 -6.6884765625 73.4765625 -4.9482421875C73.4765625 -3.1904296875 72.7119140625 -2.14453125 71.3671875 -2.14453125Z"/></g><text x="1110" y="150" font-family="monospace" font-size="12" fill="#8B92A5">Philosophy keeps me grounded</text><text x="1110" y="168" font-family="monospace" font-size="12" fill="#8B92A5">and constantly curious.</text><circle cx="30" cy="235" r="1" fill="#6BBF3D"/><circle cx="48" cy="235" r="1" fill="#6BBF3D"/><circle cx="66" cy="235" r="1" fill="#6BBF3D"/><circle cx="85" cy="235" r="1" fill="#6BBF3D"/><circle cx="103" cy="235" r="1" fill="#6BBF3D"/><circle cx="121" cy="235" r="1" fill="#6BBF3D"/><circle cx="139" cy="235" r="1" fill="#6BBF3D"/><circle cx="158" cy="235" r="1" fill="#6BBF3D"/><circle cx="176" cy="235" r="1" fill="#6BBF3D"/><circle cx="194" cy="235" r="1" fill="#6BBF3D"/><circle cx="212" cy="235" r="1" fill="#6BBF3D"/><circle cx="231" cy="235" r="1" fill="#6BBF3D"/><circle cx="249" cy="235" r="1" fill="#6BBF3D"/><circle cx="267" cy="235" r="1" fill="#6BBF3D"/><circle cx="285" cy="235" r="1" fill="#6BBF3D"/><circle cx="303" cy="235" r="1" fill="#6BBF3D"/><circle cx="322" cy="235" r="1" fill="#6BBF3D"/><circle cx="340" cy="235" r="1" fill="#6BBF3D"/><circle cx="358" cy="235" r="1" fill="#6BBF3D"/><circle cx="376" cy="235" r="1" fill="#6BBF3D"/><circle cx="395" cy="235" r="1" fill="#6BBF3D"/><circle cx="413" cy="235" r="1" fill="#6BBF3D"/><circle cx="431" cy="235" r="1" fill="#6BBF3D"/><circle cx="449" cy="235" r="1" fill="#6BBF3D"/><circle cx="467" cy="235" r="1" fill="#6BBF3D"/><circle cx="486" cy="235" r="1" fill="#6BBF3D"/><circle cx="504" cy="235" r="1" fill="#6BBF3D"/><circle cx="522" cy="235" r="1" fill="#6BBF3D"/><circle cx="540" cy="235" r="1" fill="#6BBF3D"/><circle cx="559" cy="235" r="1" fill="#6BBF3D"/><circle cx="577" cy="235" r="1" fill="#6BBF3D"/><circle cx="595" cy="235" r="1" fill="#6BBF3D"/><circle cx="613" cy="235" r="1" fill="#6BBF3D"/><circle cx="632" cy="235" r="1" fill="#6BBF3D"/><circle cx="650" cy="235" r="1" fill="#6BBF3D"/><circle cx="668" cy="235" r="1" fill="#6BBF3D"/><circle cx="686" cy="235" r="1" fill="#6BBF3D"/><circle cx="704" cy="235" r="1" fill="#6BBF3D"/><circle cx="723" cy="235" r="1" fill="#6BBF3D"/><circle cx="741" cy="235" r="1" fill="#6BBF3D"/><circle cx="759" cy="235" r="1" fill="#6BBF3D"/><circle cx="777" cy="235" r="1" fill="#6BBF3D"/><circle cx="796" cy="235" r="1" fill="#6BBF3D"/><circle cx="814" cy="235" r="1" fill="#6BBF3D"/><circle cx="832" cy="235" r="1" fill="#6BBF3D"/><circle cx="850" cy="235" r="1" fill="#6BBF3D"/><circle cx="868" cy="235" r="1" fill="#6BBF3D"/><circle cx="887" cy="235" r="1" fill="#6BBF3D"/><circle cx="905" cy="235" r="1" fill="#6BBF3D"/><circle cx="923" cy="235" r="1" fill="#6BBF3D"/><circle cx="941" cy="235" r="1" fill="#6BBF3D"/><circle cx="960" cy="235" r="1" fill="#6BBF3D"/><circle cx="978" cy="235" r="1" fill="#6BBF3D"/><circle cx="996" cy="235" r="1" fill="#6BBF3D"/><circle cx="1014" cy="235" r="1" fill="#6BBF3D"/><circle cx="1033" cy="235" r="1" fill="#6BBF3D"/><circle cx="1051" cy="235" r="1" fill="#6BBF3D"/><circle cx="1069" cy="235" r="1" fill="#6BBF3D"/><circle cx="1087" cy="235" r="1" fill="#6BBF3D"/><circle cx="1105" cy="235" r="1" fill="#6BBF3D"/><circle cx="1124" cy="235" r="1" fill="#6BBF3D"/><circle cx="1142" cy="235" r="1" fill="#6BBF3D"/><circle cx="1160" cy="235" r="1" fill="#6BBF3D"/><circle cx="1178" cy="235" r="1" fill="#6BBF3D"/><circle cx="1197" cy="235" r="1" fill="#6BBF3D"/><circle cx="1215" cy="235" r="1" fill="#6BBF3D"/><circle cx="1233" cy="235" r="1" fill="#6BBF3D"/><circle cx="1251" cy="235" r="1" fill="#6BBF3D"/><circle cx="1269" cy="235" r="1" fill="#6BBF3D"/><circle cx="1288" cy="235" r="1" fill="#6BBF3D"/><circle cx="1306" cy="235" r="1" fill="#6BBF3D"/><circle cx="1324" cy="235" r="1" fill="#6BBF3D"/><circle cx="1342" cy="235" r="1" fill="#6BBF3D"/><circle cx="1361" cy="235" r="1" fill="#6BBF3D"/><circle cx="1379" cy="235" r="1" fill="#6BBF3D"/><circle cx="1397" cy="235" r="1" fill="#6BBF3D"/><circle cx="1415" cy="235" r="1" fill="#6BBF3D"/><circle cx="1434" cy="235" r="1" fill="#6BBF3D"/><circle cx="1452" cy="235" r="1" fill="#6BBF3D"/><circle cx="1470" cy="235" r="1" fill="#6BBF3D"/><text x="750" y="270" font-family="monospace" font-size="13" fill="#8B92A5" text-anchor="middle"><tspan>Thanks for stopping by! Let’s </tspan><tspan fill="#9EFF5A">build</tspan><tspan> </tspan><tspan fill="#9EFF5A">the</tspan><tspan> </tspan><tspan fill="#9EFF5A">future</tspan><tspan> together.</tspan></text></svg>