<svg xmlns="http://www.w3.org/2000/svg" viewBox="0 0 1500 280"><rect x="0" y="0" width="1500" height="280" fill="#0A0E1A"/><g transform="translate(30,42) scale(0.8333)"><path fill="#9EFF5A" d="M2 9.5a5.5 5.5 0 0 1 9.591-3.676.56.56 0 0 0 .818 0A5.49 5.49 0 0 1 22 9.5c0 2.29-1.5 4-3 5.5l-5.492 5.313a2 2 0 0 1-3 .019L5 15c-1.5-1.5-3-3.2-3-5.5" /></g><g transform="translate(58,58)" fill="#9EFF5A"><path d="M3.0693359375 14.0H5.455078125L6.8017578125 8.791015625C7.0 8.0185546875 7.123046875 7.205078125 7.2529296875 6.357421875C7.396484375 7.232421875 7.533203125 8.0595703125 7.7177734375 8.791015625L9.0712890625 14.0H11.4501953125L14.19140625 3.814453125H11.908203125L10.7255859375 8.8251953125C10.5205078125 9.7548828125 10.3427734375 10.8486328125 10.1787109375 11.8876953125C9.994140625 10.8486328125 9.8095703125 9.7548828125 9.583984375 8.8251953125L8.3466796875 3.814453125H6.1796875L4.935546875 8.8251953125C4.703125 9.76171875 4.525390625 10.869140625 4.3408203125 11.9150390625C4.1767578125 10.869140625 3.9990234375 9.76171875 3.7939453125 8.8251953125L2.611328125 3.814453125H0.3349609375ZM15.44921875 14.0H17.5341796875V9.6591796875H21.970703125V14.0H24.0625V3.814453125H21.970703125V7.9296875H17.5341796875V3.814453125H15.44921875ZM25.3203125 14.0H27.6240234375L28.3828125 11.634765625H31.9990234375L32.78515625 14.0H35.1025390625L31.5341796875 3.814453125H28.7998046875ZM28.90234375 10.0009765625 29.1962890625 9.0849609375C29.50390625 8.0595703125 29.8046875 6.849609375 30.146484375 5.4482421875C30.501953125 6.8359375 30.8232421875 8.0390625 31.1513671875 9.0849609375L31.458984375 10.0009765625ZM35.9501953125 5.5439453125H39.0673828125V14.0H41.1591796875V5.5439453125H44.26953125V3.814453125H35.9501953125ZM51.10546875 3.814453125H49.0205078125V14.0H51.10546875ZM56.2666015625 14.0H63.095703125V12.2705078125H58.3515625V9.70703125H62.7265625V8.0048828125H58.3515625V5.5439453125H63.08203125V3.814453125H56.2666015625ZM64.7705078125 14.0H66.9033203125V9.3173828125C66.9033203125 8.7158203125 66.841796875 7.6220703125 66.7666015625 6.3916015625C67.3955078125 7.6630859375 67.771484375 8.408203125 68.3388671875 9.32421875L71.2646484375 14.0H73.595703125V3.814453125H71.462890625V8.7021484375C71.462890625 9.3720703125 71.517578125 10.4658203125 71.5927734375 11.4638671875C71.1484375 10.404296875 70.7177734375 9.6318359375 70.314453125 8.96875L67.0947265625 3.814453125H64.7705078125ZM78.39453125 14.13671875C80.4931640625 14.13671875 81.7783203125 12.98828125 81.7783203125 10.9306640625V3.814453125H79.7138671875V10.96484375C79.7138671875 11.94921875 79.2080078125 12.455078125 78.39453125 12.455078125C77.5810546875 12.455078125 77.068359375 11.94921875 77.068359375 10.9716796875V10.3427734375H74.9833984375V10.9375C74.9833984375 12.98828125 76.275390625 14.13671875 78.39453125 14.13671875ZM88.0947265625 14.13671875C90.794921875 14.13671875 92.845703125 12.2294921875 92.845703125 8.9140625C92.845703125 5.5849609375 90.794921875 3.677734375 88.0947265625 3.677734375C85.39453125 3.677734375 83.34375 5.5849609375 83.34375 8.9140625C83.34375 12.22265625 85.39453125 14.13671875 88.0947265625 14.13671875ZM88.0947265625 12.2841796875C86.515625 12.2841796875 85.462890625 11.0947265625 85.462890625 8.9140625C85.462890625 6.7265625 86.515625 5.5302734375 88.0947265625 5.5302734375C89.673828125 5.5302734375 90.7265625 6.7197265625 90.7265625 8.9140625C90.7265625 11.0947265625 89.673828125 12.2841796875 88.0947265625 12.2841796875ZM97.5966796875 14.0H99.6748046875V10.171875L103.38671875 3.814453125H100.953125L99.28515625 6.986328125C99.0458984375 7.4443359375 98.84765625 7.8681640625 98.6494140625 8.408203125C98.4443359375 7.875 98.24609375 7.451171875 97.986328125 6.986328125L96.263671875 3.814453125H93.8232421875L97.5966796875 10.171875Z"/></g><g transform="translate(30,100) scale(1.0000)"><path fill="#9EFF5A" d="M21 8a2 2 0 0 0-1-1.73l-7-4a2 2 0 0 0-2 0l-7 4A2 2 0 0 0 3 8v8a2 2 0 0 0 1 1.73l7 4a2 2 0 0 0 2 0l7-4A2 2 0 0 0 21 16Z" />
  <path fill="#9EFF5A" d="m3.3 7 8.7 5 8.7-5" />
  <path fill="#9EFF5A" d="M12 22V12" /></g><g transform="translate(66,118)" fill="#9EFF5A"><path d="M1.1865234375 18.0H6.71484375C9.66796875 18.0 11.21484375 16.4619140625 11.21484375 14.3876953125C11.21484375 12.4453125 9.826171875 11.28515625 8.349609375 11.21484375V11.0830078125C9.6943359375 10.7841796875 10.705078125 9.826171875 10.705078125 8.2705078125C10.705078125 6.310546875 9.2548828125 4.904296875 6.380859375 4.904296875H1.1865234375ZM3.8671875 15.7939453125V12.2431640625H6.2578125C7.6025390625 12.2431640625 8.455078125 13.0341796875 8.455078125 14.1328125C8.455078125 15.1259765625 7.7607421875 15.7939453125 6.1875 15.7939453125ZM3.8671875 10.40625V7.0927734375H6.0380859375C7.294921875 7.0927734375 7.9892578125 7.7431640625 7.9892578125 8.701171875C7.9892578125 9.755859375 7.13671875 10.40625 5.9853515625 10.40625ZM16.41796875 18.123046875C17.912109375 18.123046875 18.9140625 17.349609375 19.4677734375 15.9609375L19.5029296875 18.0H21.9990234375V8.173828125H19.353515625V13.8603515625C19.353515625 15.1611328125 18.5625 15.9169921875 17.4462890625 15.9169921875C16.3388671875 15.9169921875 15.6708984375 15.1875 15.6708984375 13.9658203125V8.173828125H13.0341796875V14.4228515625C13.0341796875 16.7255859375 14.37890625 18.123046875 16.41796875 18.123046875ZM24.240234375 18.0H26.876953125V8.173828125H24.240234375ZM25.55859375 6.890625C26.349609375 6.890625 27.0087890625 6.29296875 27.0087890625 5.537109375C27.0087890625 4.7900390625 26.349609375 4.18359375 25.55859375 4.18359375C24.7587890625 4.18359375 24.1083984375 4.7900390625 24.1083984375 5.537109375C24.1083984375 6.29296875 24.7587890625 6.890625 25.55859375 6.890625ZM31.7548828125 4.904296875H29.1181640625V18.0H31.7548828125ZM37.5908203125 18.1669921875C39.1904296875 18.1669921875 40.0078125 17.2177734375 40.3681640625 16.4267578125H40.5V18.0H43.0927734375V4.904296875H40.4560546875V9.826171875H40.3681640625C40.0166015625 9.0439453125 39.2431640625 8.05078125 37.5732421875 8.05078125C35.3935546875 8.05078125 33.5830078125 9.7470703125 33.5830078125 13.1044921875C33.5830078125 16.3740234375 35.3232421875 18.1669921875 37.5908203125 18.1669921875ZM38.3994140625 16.048828125C37.0283203125 16.048828125 36.2900390625 14.8271484375 36.2900390625 13.095703125C36.2900390625 11.373046875 37.0107421875 10.16015625 38.3994140625 10.16015625C39.7529296875 10.16015625 40.5087890625 11.3115234375 40.5087890625 13.095703125C40.5087890625 14.87109375 39.744140625 16.048828125 38.3994140625 16.048828125ZM45.3427734375 18.0H47.9794921875V8.173828125H45.3427734375ZM46.6611328125 6.890625C47.4521484375 6.890625 48.111328125 6.29296875 48.111328125 5.537109375C48.111328125 4.7900390625 47.4521484375 4.18359375 46.6611328125 4.18359375C45.861328125 4.18359375 45.2109375 4.7900390625 45.2109375 5.537109375C45.2109375 6.29296875 45.861328125 6.890625 46.6611328125 6.890625ZM52.857421875 12.3134765625C52.857421875 11.0126953125 53.6396484375 10.2568359375 54.7646484375 10.2568359375C55.8720703125 10.2568359375 56.5400390625 10.986328125 56.5400390625 12.2080078125V18.0H59.1767578125V11.7509765625C59.1767578125 9.4482421875 57.8408203125 8.05078125 55.8017578125 8.05078125C54.2900390625 8.05078125 53.296875 8.8330078125 52.7431640625 10.2041015625L52.7080078125 8.173828125H50.220703125V18.0H52.857421875ZM65.794921875 21.884765625C68.5634765625 21.884765625 70.5498046875 20.583984375 70.5498046875 17.9208984375V8.173828125H67.95703125V9.826171875H67.8427734375C67.482421875 9.0439453125 66.673828125 8.05078125 65.021484375 8.05078125C62.841796875 8.05078125 61.013671875 9.7470703125 61.013671875 13.0693359375C61.013671875 16.3212890625 62.7978515625 17.859375 65.0126953125 17.859375C66.603515625 17.859375 67.376953125 17.05078125 67.7373046875 16.259765625H67.939453125V18.0703125C67.939453125 19.3623046875 67.1220703125 19.96875 65.77734375 19.96875C64.494140625 19.96875 63.8876953125 19.3974609375 63.6416015625 18.84375L61.3740234375 19.4765625C61.8046875 20.8828125 63.333984375 21.884765625 65.794921875 21.884765625ZM65.8388671875 15.85546875C64.4677734375 15.85546875 63.720703125 14.765625 63.720703125 13.0517578125C63.720703125 11.3642578125 64.4501953125 10.16015625 65.8388671875 10.16015625C67.1923828125 10.16015625 67.9482421875 11.3115234375 67.9482421875 13.0517578125C67.9482421875 14.8095703125 67.18359375 15.85546875 65.8388671875 15.85546875Z"/></g><text x="30" y="150" font-family="monospace" font-size="12" fill="#8B92A5">I enjoy building tools and</text><text x="30" y="168" font-family="monospace" font-size="12" fill="#8B92A5">apps that solve real problems.</text><g transform="translate(390,100) scale(1.0000)"><path fill="#9EFF5A" d="M13.4 2H6a2 2 0 0 0-2 2v16a2 2 0 0 0 2 2h12a2 2 0 0 0 2-2v-7.4" />
  <path fill="#9EFF5A" d="M2 6h4" />
  <path fill="#9EFF5A" d="M2 10h4" />
  <path fill="#9EFF5A" d="M2 14h4" />
  <path fill="#9EFF5A" d="M2 18h4" />
  <path fill="#9EFF5A" d="M21.378 5.626a1 1 0 1 0-3.004-3.004l-5.01 5.012a2 2 0 0 0-.506.854l-.837 2.87a.5.5 0 0 0 .62.62l2.87-.837a2 2 0 0 0 .854-.506z" /></g><g transform="translate(426,118)" fill="#9EFF5A"><path d="M3.9462890625 18.0H7.013671875L8.7451171875 11.302734375C9.0 10.3095703125 9.158203125 9.263671875 9.3251953125 8.173828125C9.509765625 9.298828125 9.685546875 10.3623046875 9.9228515625 11.302734375L11.6630859375 18.0H14.7216796875L18.24609375 4.904296875H15.310546875L13.7900390625 11.3466796875C13.5263671875 12.5419921875 13.2978515625 13.9482421875 13.0869140625 15.2841796875C12.849609375 13.9482421875 12.6123046875 12.5419921875 12.322265625 11.3466796875L10.7314453125 4.904296875H7.9453125L6.345703125 11.3466796875C6.046875 12.55078125 5.818359375 13.974609375 5.5810546875 15.3193359375C5.3701171875 13.974609375 5.1416015625 12.55078125 4.8779296875 11.3466796875L3.357421875 4.904296875H0.4306640625ZM19.8017578125 18.0H22.4384765625V12.41015625C22.4384765625 11.1884765625 23.326171875 10.353515625 24.5390625 10.353515625C24.92578125 10.353515625 25.4443359375 10.4150390625 25.681640625 10.4853515625V8.1298828125C25.4443359375 8.0771484375 25.1015625 8.0419921875 24.8291015625 8.0419921875C23.7216796875 8.0419921875 22.81640625 8.6748046875 22.4560546875 9.8876953125H22.3505859375V8.173828125H19.8017578125ZM27.1318359375 18.0H29.7685546875V8.173828125H27.1318359375ZM28.4501953125 6.890625C29.2412109375 6.890625 29.900390625 6.29296875 29.900390625 5.537109375C29.900390625 4.7900390625 29.2412109375 4.18359375 28.4501953125 4.18359375C27.650390625 4.18359375 27.0 4.7900390625 27.0 5.537109375C27.0 6.29296875 27.650390625 6.890625 28.4501953125 6.890625ZM36.8876953125 8.173828125H35.05078125V5.8359375H32.4140625V8.173828125H31.060546875V10.1865234375H32.4140625V15.3544921875C32.4140625 17.15625 33.486328125 18.140625 35.455078125 18.140625C35.982421875 18.140625 36.5712890625 18.0791015625 37.16015625 17.9033203125L36.7822265625 15.92578125C36.5888671875 15.978515625 36.1494140625 16.0400390625 35.947265625 16.0400390625C35.3056640625 16.0400390625 35.05078125 15.75 35.05078125 15.1259765625V10.1865234375H36.8876953125ZM38.6015625 18.0H41.23828125V8.173828125H38.6015625ZM39.919921875 6.890625C40.7109375 6.890625 41.3701171875 6.29296875 41.3701171875 5.537109375C41.3701171875 4.7900390625 40.7109375 4.18359375 39.919921875 4.18359375C39.1201171875 4.18359375 38.4697265625 4.7900390625 38.4697265625 5.537109375C38.4697265625 6.29296875 39.1201171875 6.890625 39.919921875 6.890625ZM46.1162109375 12.3134765625C46.1162109375 11.0126953125 46.8984375 10.2568359375 48.0234375 10.2568359375C49.130859375 10.2568359375 49.798828125 10.986328125 49.798828125 12.2080078125V18.0H52.435546875V11.7509765625C52.435546875 9.4482421875 51.099609375 8.05078125 49.060546875 8.05078125C47.548828125 8.05078125 46.5556640625 8.8330078125 46.001953125 10.2041015625L45.966796875 8.173828125H43.4794921875V18.0H46.1162109375ZM59.0537109375 21.884765625C61.822265625 21.884765625 63.80859375 20.583984375 63.80859375 17.9208984375V8.173828125H61.2158203125V9.826171875H61.1015625C60.7412109375 9.0439453125 59.9326171875 8.05078125 58.2802734375 8.05078125C56.1005859375 8.05078125 54.2724609375 9.7470703125 54.2724609375 13.0693359375C54.2724609375 16.3212890625 56.056640625 17.859375 58.271484375 17.859375C59.8623046875 17.859375 60.6357421875 17.05078125 60.99609375 16.259765625H61.1982421875V18.0703125C61.1982421875 19.3623046875 60.380859375 19.96875 59.0361328125 19.96875C57.7529296875 19.96875 57.146484375 19.3974609375 56.900390625 18.84375L54.6328125 19.4765625C55.0634765625 20.8828125 56.5927734375 21.884765625 59.0537109375 21.884765625ZM59.09765625 15.85546875C57.7265625 15.85546875 56.9794921875 14.765625 56.9794921875 13.0517578125C56.9794921875 11.3642578125 57.708984375 10.16015625 59.09765625 10.16015625C60.451171875 10.16015625 61.20703125 11.3115234375 61.20703125 13.0517578125C61.20703125 14.8095703125 60.4423828125 15.85546875 59.09765625 15.85546875Z"/></g><text x="390" y="150" font-family="monospace" font-size="12" fill="#8B92A5">From technical docs to deep</text><text x="390" y="168" font-family="monospace" font-size="12" fill="#8B92A5">thoughts — I write to think.</text><g transform="translate(750,100) scale(1.0000)"><path fill="#9EFF5A" d="m10.065 12.493-6.18 1.318a.934.934 0 0 1-1.108-.702l-.537-2.15a1.07 1.07 0 0 1 .691-1.265l13.504-4.44" />
  <path fill="#9EFF5A" d="m13.56 11.747 4.332-.924" />
  <path fill="#9EFF5A" d="m16 21-3.105-6.21" />
  <path fill="#9EFF5A" d="M16.485 5.94a2 2 0 0 1 1.455-2.425l1.09-.272a1 1 0 0 1 1.212.727l1.515 6.06a1 1 0 0 1-.727 1.213l-1.09.272a2 2 0 0 1-2.425-1.455z" />
  <path fill="#9EFF5A" d="m6.158 8.633 1.114 4.456" />
  <path fill="#9EFF5A" d="m8 21 3.105-6.21" />
  <circle cx="12" cy="13" r="2" /></g><g transform="translate(786,118)" fill="#9EFF5A"><path d="M1.1865234375 18.0H9.966796875V15.7763671875H3.8671875V12.48046875H9.4921875V10.2919921875H3.8671875V7.1279296875H9.94921875V4.904296875H1.1865234375ZM11.302734375 18.0H14.09765625L15.1875 16.1455078125C15.5478515625 15.5126953125 15.837890625 14.8798828125 16.119140625 14.2646484375C16.4091796875 14.8798828125 16.716796875 15.5126953125 17.0859375 16.1455078125L18.17578125 18.0H21.005859375L17.8330078125 12.990234375L20.865234375 8.173828125H18.0703125L17.1474609375 9.720703125C16.7783203125 10.37109375 16.470703125 11.0126953125 16.1806640625 11.63671875C15.890625 11.0126953125 15.591796875 10.37109375 15.2314453125 9.720703125L14.34375 8.173828125H11.49609375L14.466796875 12.955078125ZM22.5 21.673828125H25.13671875V16.4267578125H25.2158203125C25.5849609375 17.2177734375 26.3935546875 18.1669921875 28.001953125 18.1669921875C30.26953125 18.1669921875 32.0009765625 16.3740234375 32.0009765625 13.1044921875C32.0009765625 9.7470703125 30.19921875 8.05078125 28.01953125 8.05078125C26.349609375 8.05078125 25.576171875 9.0439453125 25.2158203125 9.826171875H25.0927734375V8.173828125H22.5ZM27.193359375 16.048828125C25.8486328125 16.048828125 25.0751953125 14.87109375 25.0751953125 13.095703125C25.0751953125 11.3115234375 25.83984375 10.16015625 27.193359375 10.16015625C28.5732421875 10.16015625 29.302734375 11.373046875 29.302734375 13.095703125C29.302734375 14.8271484375 28.564453125 16.048828125 27.193359375 16.048828125ZM36.4833984375 4.904296875H33.8466796875V18.0H36.4833984375ZM43.119140625 18.193359375C46.072265625 18.193359375 47.9267578125 16.154296875 47.9267578125 13.130859375C47.9267578125 10.08984375 46.072265625 8.05078125 43.119140625 8.05078125C40.1572265625 8.05078125 38.3115234375 10.08984375 38.3115234375 13.130859375C38.3115234375 16.154296875 40.1572265625 18.193359375 43.119140625 18.193359375ZM43.119140625 16.119140625C41.712890625 16.119140625 41.0009765625 14.8359375 41.0009765625 13.1220703125C41.0009765625 11.3818359375 41.712890625 10.125 43.119140625 10.125C44.525390625 10.125 45.24609375 11.390625 45.24609375 13.1220703125C45.24609375 14.8359375 44.525390625 16.119140625 43.119140625 16.119140625ZM49.763671875 18.0H52.400390625V12.41015625C52.400390625 11.1884765625 53.2880859375 10.353515625 54.5009765625 10.353515625C54.8876953125 10.353515625 55.40625 10.4150390625 55.6435546875 10.4853515625V8.1298828125C55.40625 8.0771484375 55.0634765625 8.0419921875 54.791015625 8.0419921875C53.68359375 8.0419921875 52.7783203125 8.6748046875 52.41796875 9.8876953125H52.3125V8.173828125H49.763671875ZM57.09375 18.0H59.73046875V8.173828125H57.09375ZM58.412109375 6.890625C59.203125 6.890625 59.8623046875 6.29296875 59.8623046875 5.537109375C59.8623046875 4.7900390625 59.203125 4.18359375 58.412109375 4.18359375C57.6123046875 4.18359375 56.9619140625 4.7900390625 56.9619140625 5.537109375C56.9619140625 6.29296875 57.6123046875 6.890625 58.412109375 6.890625ZM64.6083984375 12.3134765625C64.6083984375 11.0126953125 65.390625 10.2568359375 66.515625 10.2568359375C67.623046875 10.2568359375 68.291015625 10.986328125 68.291015625 12.2080078125V18.0H70.927734375V11.7509765625C70.927734375 9.4482421875 69.591796875 8.05078125 67.552734375 8.05078125C66.041015625 8.05078125 65.0478515625 8.8330078125 64.494140625 10.2041015625L64.458984375 8.173828125H61.9716796875V18.0H64.6083984375ZM77.5458984375 21.884765625C80.314453125 21.884765625 82.30078125 20.583984375 82.30078125 17.9208984375V8.173828125H79.7080078125V9.826171875H79.59375C79.2333984375 9.0439453125 78.4248046875 8.05078125 76.7724609375 8.05078125C74.5927734375 8.05078125 72.7646484375 9.7470703125 72.7646484375 13.0693359375C72.7646484375 16.3212890625 74.548828125 17.859375 76.763671875 17.859375C78.3544921875 17.859375 79.1279296875 17.05078125 79.48828125 16.259765625H79.6904296875V18.0703125C79.6904296875 19.3623046875 78.873046875 19.96875 77.5283203125 19.96875C76.2451171875 19.96875 75.638671875 19.3974609375 75.392578125 18.84375L73.125 19.4765625C73.5556640625 20.8828125 75.0849609375 21.884765625 77.5458984375 21.884765625ZM77.58984375 15.85546875C76.21875 15.85546875 75.4716796875 14.765625 75.4716796875 13.0517578125C75.4716796875 11.3642578125 76.201171875 10.16015625 77.58984375 10.16015625C78.943359375 10.16015625 79.69921875 11.3115234375 79.69921875 13.0517578125C79.69921875 14.8095703125 78.9345703125 15.85546875 77.58984375 15.85546875Z"/></g><text x="750" y="150" font-family="monospace" font-size="12" fill="#8B92A5">Space, physics, and the unknown</text><text x="750" y="168" font-family="monospace" font-size="12" fill="#8B92A5">fascinate me endlessly.</text><g transform="translate(1110,100) scale(1.0000)"><path fill="#9EFF5A" d="M15 14c.2-1 .7-1.7 1.5-2.5 1-.9 1.5-2.2 1.5-3.5A6 6 0 0 0 6 8c0 1 .2 2.2 1.5 3.5.7.7 1.3 1.5 1.5 2.5" />
  <path fill="#9EFF5A" d="M9 18h6" />
  <path fill="#9EFF5A" d="M10 22h4" /></g><g transform="translate(1146,118)" fill="#9EFF5A"><path d="M0.6591796875 7.1279296875H4.6669921875V18.0H7.3564453125V7.1279296875H11.35546875V4.904296875H0.6591796875ZM15.7763671875 12.3134765625C15.7763671875 11.0126953125 16.55859375 10.2568359375 17.68359375 10.2568359375C18.791015625 10.2568359375 19.458984375 10.986328125 19.458984375 12.2080078125V18.0H22.1044921875V11.7509765625C22.1044921875 9.4482421875 20.759765625 8.05078125 18.720703125 8.05078125C17.26171875 8.05078125 16.294921875 8.771484375 15.7236328125 10.0546875V4.904296875H13.1396484375V18.0H15.7763671875ZM24.345703125 18.0H26.982421875V8.173828125H24.345703125ZM25.6640625 6.890625C26.455078125 6.890625 27.1142578125 6.29296875 27.1142578125 5.537109375C27.1142578125 4.7900390625 26.455078125 4.18359375 25.6640625 4.18359375C24.8642578125 4.18359375 24.2138671875 4.7900390625 24.2138671875 5.537109375C24.2138671875 6.29296875 24.8642578125 6.890625 25.6640625 6.890625ZM31.8603515625 12.3134765625C31.8603515625 11.0126953125 32.642578125 10.2568359375 33.767578125 10.2568359375C34.875 10.2568359375 35.54296875 10.986328125 35.54296875 12.2080078125V18.0H38.1796875V11.7509765625C38.1796875 9.4482421875 36.84375 8.05078125 34.8046875 8.05078125C33.29296875 8.05078125 32.2998046875 8.8330078125 31.74609375 10.2041015625L31.7109375 8.173828125H29.2236328125V18.0H31.8603515625ZM40.4296875 18.0H43.06640625V14.8447265625L43.822265625 13.9921875L46.564453125 18.0H49.6669921875L45.80859375 12.4365234375L49.482421875 8.173828125H46.4326171875L43.2158203125 11.953125H43.06640625V4.904296875H40.4296875ZM50.87109375 18.0H53.5078125V8.173828125H50.87109375ZM52.189453125 6.890625C52.98046875 6.890625 53.6396484375 6.29296875 53.6396484375 5.537109375C53.6396484375 4.7900390625 52.98046875 4.18359375 52.189453125 4.18359375C51.3896484375 4.18359375 50.7392578125 4.7900390625 50.7392578125 5.537109375C50.7392578125 6.29296875 51.3896484375 6.890625 52.189453125 6.890625ZM58.3857421875 12.3134765625C58.3857421875 11.0126953125 59.16796875 10.2568359375 60.29296875 10.2568359375C61.400390625 10.2568359375 62.068359375 10.986328125 62.068359375 12.2080078125V18.0H64.705078125V11.7509765625C64.705078125 9.4482421875 63.369140625 8.05078125 61.330078125 8.05078125C59.818359375 8.05078125 58.8251953125 8.8330078125 58.271484375 10.2041015625L58.236328125 8.173828125H55.7490234375V18.0H58.3857421875ZM71.3232421875 21.884765625C74.091796875 21.884765625 76.078125 20.583984375 76.078125 17.9208984375V8.173828125H73.4853515625V9.826171875H73.37109375C73.0107421875 9.0439453125 72.2021484375 8.05078125 70.5498046875 8.05078125C68.3701171875 8.05078125 66.5419921875 9.7470703125 66.5419921875 13.0693359375C66.5419921875 16.3212890625 68.326171875 17.859375 70.541015625 17.859375C72.1318359375 17.859375 72.9052734375 17.05078125 73.265625 16.259765625H73.4677734375V18.0703125C73.4677734375 19.3623046875 72.650390625 19.96875 71.3056640625 19.96875C70.0224609375 19.96875 69.416015625 19.3974609375 69.169921875 18.84375L66.90234375 19.4765625C67.3330078125 20.8828125 68.8623046875 21.884765625 71.3232421875 21.884765625ZM71.3671875 15.85546875C69.99609375 15.85546875 69.2490234375 14.765625 69.2490234375 13.0517578125C69.2490234375 11.3642578125 69.978515625 10.16015625 71.3671875 10.16015625C72.720703125 10.16015625 73.4765625 11.3115234375 73.4765625 13.0517578125C73.4765625 14.8095703125 72.7119140625 15.85546875 71.3671875 15.85546875Z"/></g><text x="1110" y="150" font-family="monospace" font-size="12" fill="#8B92A5">Philosophy keeps me grounded</text><text x="1110" y="168" font-family="monospace" font-size="12" fill="#8B92A5">and constantly curious.</text><circle cx="30" cy="235" r="1" fill="#6BBF3D"/><circle cx="48" cy="235" r="1" fill="#6BBF3D"/><circle cx="66" cy="235" r="1" fill="#6BBF3D"/><circle cx="85" cy="235" r="1" fill="#6BBF3D"/><circle cx="103" cy="235" r="1" fill="#6BBF3D"/><circle cx="121" cy="235" r="1" fill="#6BBF3D"/><circle cx="139" cy="235" r="1" fill="#6BBF3D"/><circle cx="158" cy="235" r="1" fill="#6BBF3D"/><circle cx="176" cy="235" r="1" fill="#6BBF3D"/><circle cx="194" cy="235" r="1" fill="#6BBF3D"/><circle cx="212" cy="235" r="1" fill="#6BBF3D"/><circle cx="231" cy="235" r="1" fill="#6BBF3D"/><circle cx="249" cy="235" r="1" fill="#6BBF3D"/><circle cx="267" cy="235" r="1" fill="#6BBF3D"/><circle cx="285" cy="235" r="1" fill="#6BBF3D"/><circle cx="303" cy="235" r="1" fill="#6BBF3D"/><circle cx="322" cy="235" r="1" fill="#6BBF3D"/><circle cx="340" cy="235" r="1" fill="#6BBF3D"/><circle cx="358" cy="235" r="1" fill="#6BBF3D"/><circle cx="376" cy="235" r="1" fill="#6BBF3D"/><circle cx="395" cy="235" r="1" fill="#6BBF3D"/><circle cx="413" cy="235" r="1" fill="#6BBF3D"/><circle cx="431" cy="235" r="1" fill="#6BBF3D"/><circle cx="449" cy="235" r="1" fill="#6BBF3D"/><circle cx="467" cy="235" r="1" fill="#6BBF3D"/><circle cx="486" cy="235" r="1" fill="#6BBF3D"/><circle cx="504" cy="235" r="1" fill="#6BBF3D"/><circle cx="522" cy="235" r="1" fill="#6BBF3D"/><circle cx="540" cy="235" r="1" fill="#6BBF3D"/><circle cx="559" cy="235" r="1" fill="#6BBF3D"/><circle cx="577" cy="235" r="1" fill="#6BBF3D"/><circle cx="595" cy="235" r="1" fill="#6BBF3D"/><circle cx="613" cy="235" r="1" fill="#6BBF3D"/><circle cx="632" cy="235" r="1" fill="#6BBF3D"/><circle cx="650" cy="235" r="1" fill="#6BBF3D"/><circle cx="668" cy="235" r="1" fill="#6BBF3D"/><circle cx="686" cy="235" r="1" fill="#6BBF3D"/><circle cx="704" cy="235" r="1" fill="#6BBF3D"/><circle cx="723" cy="235" r="1" fill="#6BBF3D"/><circle cx="741" cy="235" r="1" fill="#6BBF3D"/><circle cx="759" cy="235" r="1" fill="#6BBF3D"/><circle cx="777" cy="235" r="1" fill="#6BBF3D"/><circle cx="796" cy="235" r="1" fill="#6BBF3D"/><circle cx="814" cy="235" r="1" fill="#6BBF3D"/><circle cx="832" cy="235" r="1" fill="#6BBF3D"/><circle cx="850" cy="235" r="1" fill="#6BBF3D"/><circle cx="868" cy="235" r="1" fill="#6BBF3D"/><circle cx="887" cy="235" r="1" fill="#6BBF3D"/><circle cx="905" cy="235" r="1" fill="#6BBF3D"/><circle cx="923" cy="235" r="1" fill="#6BBF3D"/><circle cx="941" cy="235" r="1" fill="#6BBF3D"/><circle cx="960" cy="235" r="1" fill="#6BBF3D"/><circle cx="978" cy="235" r="1" fill="#6BBF3D"/><circle cx="996" cy="235" r="1" fill="#6BBF3D"/><circle cx="1014" cy="235" r="1" fill="#6BBF3D"/><circle cx="1033" cy="235" r="1" fill="#6BBF3D"/><circle cx="1051" cy="235" r="1" fill="#6BBF3D"/><circle cx="1069" cy="235" r="1" fill="#6BBF3D"/><circle cx="1087" cy="235" r="1" fill="#6BBF3D"/><circle cx="1105" cy="235" r="1" fill="#6BBF3D"/><circle cx="1124" cy="235" r="1" fill="#6BBF3D"/><circle cx="1142" cy="235" r="1" fill="#6BBF3D"/><circle cx="1160" cy="235" r="1" fill="#6BBF3D"/><circle cx="1178" cy="235" r="1" fill="#6BBF3D"/><circle cx="1197" cy="235" r="1" fill="#6BBF3D"/><circle cx="1215" cy="235" r="1" fill="#6BBF3D"/><circle cx="1233" cy="235" r="1" fill="#6BBF3D"/><circle cx="1251" cy="235" r="1" fill="#6BBF3D"/><circle cx="1269" cy="235" r="1" fill="#6BBF3D"/><circle cx="1288" cy="235" r="1" fill="#6BBF3D"/><circle cx="1306" cy="235" r="1" fill="#6BBF3D"/><circle cx="1324" cy="235" r="1" fill="#6BBF3D"/><circle cx="1342" cy="235" r="1" fill="#6BBF3D"/><circle cx="1361" cy="235" r="1" fill="#6BBF3D"/><circle cx="1379" cy="235" r="1" fill="#6BBF3D"/><circle cx="1397" cy="235" r="1" fill="#6BBF3D"/><circle cx="1415" cy="235" r="1" fill="#6BBF3D"/><circle cx="1434" cy="235" r="1" fill="#6BBF3D"/><circle cx="1452" cy="235" r="1" fill="#6BBF3D"/><circle cx="1470" cy="235" r="1" fill="#6BBF3D"/><text x="750" y="270" font-family="monospace" font-size="13" fill="#8B92A5" text-anchor="middle"><tspan>Thanks for stopping by! Let’s </tspan><tspan fill="#9EFF5A">build</tspan><tspan> </tspan><tspan fill="#9EFF5A">the</tspan><tspan> </tspan><tspan fill="#9EFF5A">future</tspan><tspan> together.</tspan></text></svg>